<mxfile host="app.diagrams.net" modified="2021-11-30T02:32:36.220Z" agent="5.0 (Windows NT 10.0; Win64; x64) AppleWebKit/537.36 (KHTML, like Gecko) Chrome/96.0.4664.45 Safari/537.36" etag="FPfsPHkxEEf4nVL0zZ0q" version="15.8.7" type="github">
  <diagram id="3BFR3GqZxXMxbAWBfeUj" name="Page-1">
    <mxGraphModel dx="1038" dy="539" grid="0" gridSize="10" guides="1" tooltips="1" connect="1" arrows="1" fold="1" page="1" pageScale="1" pageWidth="827" pageHeight="1169" math="0" shadow="0">
      <root>
        <mxCell id="0" />
        <mxCell id="1" parent="0" />
        <mxCell id="Dt1MJRYMlLzSGPCSOFRn-50" value="" style="rounded=1;whiteSpace=wrap;html=1;dashed=1;" parent="1" vertex="1">
          <mxGeometry x="436.25" y="411.5" width="382" height="223.5" as="geometry" />
        </mxCell>
        <mxCell id="7UlHeGkB-n3cVjGxctKM-30" value="" style="rounded=1;whiteSpace=wrap;html=1;dashed=1;" parent="1" vertex="1">
          <mxGeometry x="262" y="701" width="108.5" height="306" as="geometry" />
        </mxCell>
        <mxCell id="7UlHeGkB-n3cVjGxctKM-20" value="" style="rounded=1;whiteSpace=wrap;html=1;dashed=1;" parent="1" vertex="1">
          <mxGeometry x="56.25" y="89" width="525" height="300" as="geometry" />
        </mxCell>
        <mxCell id="EAKdSy7ptGbpC2-vD8Ey-16" value="" style="rounded=1;whiteSpace=wrap;html=1;dashed=1;" parent="1" vertex="1">
          <mxGeometry x="13" y="701" width="217.5" height="306" as="geometry" />
        </mxCell>
        <mxCell id="EAKdSy7ptGbpC2-vD8Ey-11" style="edgeStyle=none;rounded=1;orthogonalLoop=1;jettySize=auto;html=1;exitX=0.5;exitY=0;exitDx=0;exitDy=0;exitPerimeter=0;entryX=0.5;entryY=1;entryDx=0;entryDy=0;entryPerimeter=0;startArrow=none;startFill=0;endArrow=none;endFill=0;" parent="1" target="Dt1MJRYMlLzSGPCSOFRn-19" edge="1">
          <mxGeometry relative="1" as="geometry">
            <mxPoint x="78.5" y="832" as="sourcePoint" />
            <mxPoint x="78.5" y="777" as="targetPoint" />
          </mxGeometry>
        </mxCell>
        <mxCell id="EAKdSy7ptGbpC2-vD8Ey-8" value="速宝SD-WAN设备&amp;nbsp;" style="shape=mxgraph.cisco.routers.content_service_router;html=1;pointerEvents=1;dashed=0;fillColor=#036897;strokeColor=#ffffff;strokeWidth=2;verticalLabelPosition=bottom;verticalAlign=top;align=center;outlineConnect=0;" parent="1" vertex="1">
          <mxGeometry x="44" y="822" width="70" height="38" as="geometry" />
        </mxCell>
        <mxCell id="EAKdSy7ptGbpC2-vD8Ey-12" value="PC" style="shape=mxgraph.cisco.computers_and_peripherals.laptop;html=1;pointerEvents=1;dashed=0;fillColor=#036897;strokeColor=#ffffff;strokeWidth=2;verticalLabelPosition=bottom;verticalAlign=top;align=center;outlineConnect=0;" parent="1" vertex="1">
          <mxGeometry x="38.5" y="912" width="80" height="50" as="geometry" />
        </mxCell>
        <mxCell id="EAKdSy7ptGbpC2-vD8Ey-17" style="edgeStyle=none;rounded=1;orthogonalLoop=1;jettySize=auto;html=1;exitX=0.5;exitY=0;exitDx=0;exitDy=0;startArrow=none;startFill=0;endArrow=none;endFill=0;" parent="1" edge="1">
          <mxGeometry relative="1" as="geometry">
            <mxPoint x="120.25" y="703" as="sourcePoint" />
            <mxPoint x="120.25" y="703" as="targetPoint" />
          </mxGeometry>
        </mxCell>
        <mxCell id="pgLIFL3BZB2Xo_3dE_xm-6" value="&lt;span style=&quot;font-size: 14px&quot;&gt;分支一&lt;/span&gt;" style="text;html=1;resizable=0;autosize=1;align=center;verticalAlign=middle;points=[];fillColor=#fa6800;strokeColor=#C73500;rounded=0;dashed=1;fontColor=#ffffff;fontStyle=1" parent="1" vertex="1">
          <mxGeometry x="52.5" y="982" width="52" height="18" as="geometry" />
        </mxCell>
        <mxCell id="pgLIFL3BZB2Xo_3dE_xm-12" value="&lt;font style=&quot;font-size: 14px&quot;&gt;总部&lt;/font&gt;" style="text;html=1;resizable=0;autosize=1;align=center;verticalAlign=middle;points=[];fillColor=#fa6800;strokeColor=#C73500;rounded=0;dashed=1;fontColor=#ffffff;fontStyle=1" parent="1" vertex="1">
          <mxGeometry x="159.75" y="359" width="38" height="18" as="geometry" />
        </mxCell>
        <mxCell id="7UlHeGkB-n3cVjGxctKM-10" style="rounded=1;orthogonalLoop=1;jettySize=auto;html=1;exitX=0.5;exitY=0;exitDx=0;exitDy=0;exitPerimeter=0;endArrow=none;endFill=0;startArrow=none;startFill=0;entryX=0.08;entryY=0.05;entryDx=0;entryDy=0;entryPerimeter=0;" parent="1" source="CTemaUN2CCBBiWH_kIwZ-3" edge="1">
          <mxGeometry relative="1" as="geometry">
            <mxPoint x="107.75" y="604" as="sourcePoint" />
            <mxPoint x="350.75" y="259.5" as="targetPoint" />
          </mxGeometry>
        </mxCell>
        <mxCell id="7UlHeGkB-n3cVjGxctKM-11" style="edgeStyle=none;orthogonalLoop=1;jettySize=auto;html=1;startArrow=none;startFill=0;endArrow=none;endFill=0;rounded=1;strokeColor=#CC6600;strokeWidth=4;entryX=0.5;entryY=1;entryDx=0;entryDy=0;entryPerimeter=0;exitX=0.5;exitY=0;exitDx=0;exitDy=0;exitPerimeter=0;" parent="1" source="Dt1MJRYMlLzSGPCSOFRn-19" target="CTemaUN2CCBBiWH_kIwZ-15" edge="1">
          <mxGeometry relative="1" as="geometry">
            <mxPoint x="471.75" y="704" as="sourcePoint" />
            <mxPoint x="471.75" y="539" as="targetPoint" />
          </mxGeometry>
        </mxCell>
        <mxCell id="7UlHeGkB-n3cVjGxctKM-16" style="edgeStyle=none;orthogonalLoop=1;jettySize=auto;html=1;startArrow=none;startFill=0;endArrow=none;endFill=0;rounded=1;strokeColor=#CC6600;strokeWidth=4;exitX=0.5;exitY=0;exitDx=0;exitDy=0;exitPerimeter=0;entryX=0.5;entryY=1;entryDx=0;entryDy=0;entryPerimeter=0;" parent="1" source="CTemaUN2CCBBiWH_kIwZ-15" target="CTemaUN2CCBBiWH_kIwZ-6" edge="1">
          <mxGeometry relative="1" as="geometry">
            <mxPoint x="226" y="704" as="sourcePoint" />
            <mxPoint x="372.5" y="497.5" as="targetPoint" />
          </mxGeometry>
        </mxCell>
        <mxCell id="7UlHeGkB-n3cVjGxctKM-17" value="移动客户端" style="aspect=fixed;html=1;points=[];align=center;image;fontSize=12;image=img/lib/mscae/App_Service_Mobile_App.svg;" parent="1" vertex="1">
          <mxGeometry x="172" y="523.5" width="34" height="50" as="geometry" />
        </mxCell>
        <mxCell id="7UlHeGkB-n3cVjGxctKM-23" value="4G线路" style="points=[[0,0.58,0],[0.09,0.58,0],[0.36,0.39,0],[0.64,0.195,0],[0.91,0,0],[1,0,0],[1,0.25,0],[1,0.5,0],[1,0.75,0],[1,1,0],[0,1,0],[0.09,1,0],[0.36,1,0],[0.64,1,0],[0.91,1,0],[0,0.79,0]];verticalLabelPosition=bottom;html=1;verticalAlign=top;aspect=fixed;align=center;pointerEvents=1;shape=mxgraph.cisco19.wifi_indicator;fillColor=#005073;strokeColor=none;" parent="1" vertex="1">
          <mxGeometry x="150" y="720" width="45" height="45" as="geometry" />
        </mxCell>
        <mxCell id="7UlHeGkB-n3cVjGxctKM-24" style="rounded=1;orthogonalLoop=1;jettySize=auto;html=1;exitX=0.5;exitY=0;exitDx=0;exitDy=0;exitPerimeter=0;endArrow=none;endFill=0;startArrow=none;startFill=0;entryX=0.5;entryY=1;entryDx=0;entryDy=0;entryPerimeter=0;" parent="1" source="EAKdSy7ptGbpC2-vD8Ey-12" target="EAKdSy7ptGbpC2-vD8Ey-8" edge="1">
          <mxGeometry relative="1" as="geometry">
            <mxPoint x="53.5" y="967" as="sourcePoint" />
            <mxPoint x="-22" y="874" as="targetPoint" />
          </mxGeometry>
        </mxCell>
        <mxCell id="7UlHeGkB-n3cVjGxctKM-26" value="阿里云" style="pointerEvents=1;shadow=0;dashed=0;html=1;strokeColor=none;fillColor=#505050;labelPosition=center;verticalLabelPosition=bottom;outlineConnect=0;verticalAlign=top;align=center;shape=mxgraph.office.clouds.cloud;" parent="1" vertex="1">
          <mxGeometry x="269.25" y="715" width="94" height="55" as="geometry" />
        </mxCell>
        <mxCell id="7UlHeGkB-n3cVjGxctKM-28" style="rounded=1;orthogonalLoop=1;jettySize=auto;html=1;endArrow=none;endFill=0;startArrow=none;startFill=0;entryX=0;entryY=0.5;entryDx=0;entryDy=0;entryPerimeter=0;" parent="1" source="7UlHeGkB-n3cVjGxctKM-17" target="CTemaUN2CCBBiWH_kIwZ-15" edge="1">
          <mxGeometry relative="1" as="geometry">
            <mxPoint x="416.25" y="891" as="sourcePoint" />
            <mxPoint x="676.5" y="869" as="targetPoint" />
          </mxGeometry>
        </mxCell>
        <mxCell id="7UlHeGkB-n3cVjGxctKM-29" style="rounded=1;orthogonalLoop=1;jettySize=auto;html=1;endArrow=none;endFill=0;startArrow=none;startFill=0;exitX=0.5;exitY=0;exitDx=0;exitDy=0;exitPerimeter=0;" parent="1" target="7UlHeGkB-n3cVjGxctKM-26" edge="1">
          <mxGeometry relative="1" as="geometry">
            <mxPoint x="316.25" y="821" as="sourcePoint" />
            <mxPoint x="326.25" y="891" as="targetPoint" />
          </mxGeometry>
        </mxCell>
        <mxCell id="CTemaUN2CCBBiWH_kIwZ-3" value="速宝SD-WAN主设备&amp;nbsp;" style="shape=mxgraph.cisco.routers.content_service_router;html=1;pointerEvents=1;dashed=0;fillColor=#036897;strokeColor=#ffffff;strokeWidth=2;verticalLabelPosition=bottom;verticalAlign=top;align=center;outlineConnect=0;" parent="1" vertex="1">
          <mxGeometry x="136.75" y="259" width="70" height="48" as="geometry" />
        </mxCell>
        <mxCell id="CTemaUN2CCBBiWH_kIwZ-4" value="速宝SD-WAN备设备&amp;nbsp;" style="shape=mxgraph.cisco.routers.content_service_router;html=1;pointerEvents=1;dashed=0;fillColor=#036897;strokeColor=#ffffff;strokeWidth=2;verticalLabelPosition=bottom;verticalAlign=top;align=center;outlineConnect=0;" parent="1" vertex="1">
          <mxGeometry x="469.25" y="257" width="70" height="48" as="geometry" />
        </mxCell>
        <mxCell id="CTemaUN2CCBBiWH_kIwZ-8" style="rounded=1;orthogonalLoop=1;jettySize=auto;html=1;exitX=0.5;exitY=1;exitDx=0;exitDy=0;exitPerimeter=0;endArrow=none;endFill=0;startArrow=none;startFill=0;entryX=0;entryY=1;entryDx=0;entryDy=0;entryPerimeter=0;" parent="1" source="CTemaUN2CCBBiWH_kIwZ-3" edge="1">
          <mxGeometry relative="1" as="geometry">
            <mxPoint x="259.75" y="295.5" as="sourcePoint" />
            <mxPoint x="346.75" y="307" as="targetPoint" />
          </mxGeometry>
        </mxCell>
        <mxCell id="CTemaUN2CCBBiWH_kIwZ-9" style="rounded=1;orthogonalLoop=1;jettySize=auto;html=1;exitX=0.5;exitY=0;exitDx=0;exitDy=0;exitPerimeter=0;endArrow=none;endFill=0;startArrow=none;startFill=0;entryX=1;entryY=0;entryDx=0;entryDy=0;entryPerimeter=0;" parent="1" source="CTemaUN2CCBBiWH_kIwZ-4" edge="1">
          <mxGeometry relative="1" as="geometry">
            <mxPoint x="273.75" y="270" as="sourcePoint" />
            <mxPoint x="396.75" y="257" as="targetPoint" />
          </mxGeometry>
        </mxCell>
        <mxCell id="CTemaUN2CCBBiWH_kIwZ-10" style="rounded=1;orthogonalLoop=1;jettySize=auto;html=1;exitX=0.5;exitY=1;exitDx=0;exitDy=0;exitPerimeter=0;endArrow=none;endFill=0;startArrow=none;startFill=0;entryX=0.95;entryY=0.94;entryDx=0;entryDy=0;entryPerimeter=0;" parent="1" source="CTemaUN2CCBBiWH_kIwZ-4" edge="1">
          <mxGeometry relative="1" as="geometry">
            <mxPoint x="273.75" y="318" as="sourcePoint" />
            <mxPoint x="394.25" y="304" as="targetPoint" />
          </mxGeometry>
        </mxCell>
        <mxCell id="CTemaUN2CCBBiWH_kIwZ-6" value="路由器" style="shape=mxgraph.cisco.routers.atm_router;sketch=0;html=1;pointerEvents=1;dashed=0;fillColor=#036897;strokeColor=#ffffff;strokeWidth=2;verticalLabelPosition=bottom;verticalAlign=top;align=center;outlineConnect=0;" parent="1" vertex="1">
          <mxGeometry x="342.75" y="261.5" width="60" height="39" as="geometry" />
        </mxCell>
        <mxCell id="CTemaUN2CCBBiWH_kIwZ-13" value="服务器" style="shape=mxgraph.cisco.servers.file_server;sketch=0;html=1;pointerEvents=1;dashed=0;fillColor=#036897;strokeColor=#ffffff;strokeWidth=2;verticalLabelPosition=bottom;verticalAlign=top;align=center;outlineConnect=0;" parent="1" vertex="1">
          <mxGeometry x="350.25" y="115" width="43" height="58" as="geometry" />
        </mxCell>
        <mxCell id="CTemaUN2CCBBiWH_kIwZ-14" style="rounded=1;orthogonalLoop=1;jettySize=auto;html=1;exitX=0.5;exitY=1;exitDx=0;exitDy=0;exitPerimeter=0;endArrow=none;endFill=0;startArrow=none;startFill=0;entryX=0.5;entryY=0;entryDx=0;entryDy=0;entryPerimeter=0;" parent="1" source="CTemaUN2CCBBiWH_kIwZ-13" edge="1">
          <mxGeometry relative="1" as="geometry">
            <mxPoint x="479.5" y="267" as="sourcePoint" />
            <mxPoint x="371.75" y="257" as="targetPoint" />
          </mxGeometry>
        </mxCell>
        <mxCell id="CTemaUN2CCBBiWH_kIwZ-15" value="SD-WAN骨干网" style="sketch=0;points=[[0.5,0,0],[1,0.5,0],[0.5,1,0],[0,0.5,0],[0.145,0.145,0],[0.8555,0.145,0],[0.855,0.8555,0],[0.145,0.855,0]];verticalLabelPosition=bottom;html=1;verticalAlign=top;aspect=fixed;align=center;pointerEvents=1;shape=mxgraph.cisco19.rect;prIcon=vsmart;fillColor=#FAFAFA;strokeColor=#005073;" parent="1" vertex="1">
          <mxGeometry x="337" y="512" width="73" height="73" as="geometry" />
        </mxCell>
        <mxCell id="CTemaUN2CCBBiWH_kIwZ-17" style="edgeStyle=none;rounded=1;orthogonalLoop=1;jettySize=auto;html=1;exitX=0;exitY=0.5;exitDx=0;exitDy=0;exitPerimeter=0;entryX=1;entryY=0.45;entryDx=0;entryDy=0;entryPerimeter=0;startArrow=none;startFill=0;endArrow=none;endFill=0;" parent="1" source="CTemaUN2CCBBiWH_kIwZ-18" target="Dt1MJRYMlLzSGPCSOFRn-32" edge="1">
          <mxGeometry relative="1" as="geometry">
            <mxPoint x="330.75" y="796.5" as="sourcePoint" />
            <mxPoint x="330.25" y="756.5" as="targetPoint" />
          </mxGeometry>
        </mxCell>
        <mxCell id="CTemaUN2CCBBiWH_kIwZ-18" value="速宝SD-WAN设备&amp;nbsp;" style="shape=mxgraph.cisco.routers.content_service_router;html=1;pointerEvents=1;dashed=0;fillColor=#036897;strokeColor=#ffffff;strokeWidth=2;verticalLabelPosition=bottom;verticalAlign=top;align=center;outlineConnect=0;" parent="1" vertex="1">
          <mxGeometry x="574.13" y="442.5" width="70" height="38" as="geometry" />
        </mxCell>
        <mxCell id="CTemaUN2CCBBiWH_kIwZ-20" value="PC" style="shape=mxgraph.cisco.computers_and_peripherals.laptop;html=1;pointerEvents=1;dashed=0;fillColor=#036897;strokeColor=#ffffff;strokeWidth=2;verticalLabelPosition=bottom;verticalAlign=top;align=center;outlineConnect=0;" parent="1" vertex="1">
          <mxGeometry x="678.25" y="436.5" width="80" height="50" as="geometry" />
        </mxCell>
        <mxCell id="CTemaUN2CCBBiWH_kIwZ-21" style="edgeStyle=none;rounded=1;orthogonalLoop=1;jettySize=auto;html=1;exitX=0.5;exitY=0;exitDx=0;exitDy=0;startArrow=none;startFill=0;endArrow=none;endFill=0;" parent="1" edge="1">
          <mxGeometry relative="1" as="geometry">
            <mxPoint x="290" y="703" as="sourcePoint" />
            <mxPoint x="290" y="703" as="targetPoint" />
          </mxGeometry>
        </mxCell>
        <mxCell id="CTemaUN2CCBBiWH_kIwZ-22" value="&lt;span style=&quot;font-size: 14px&quot;&gt;分支二&lt;/span&gt;" style="text;html=1;resizable=0;autosize=1;align=center;verticalAlign=middle;points=[];fillColor=#fa6800;strokeColor=#C73500;rounded=0;dashed=1;fontColor=#ffffff;fontStyle=1" parent="1" vertex="1">
          <mxGeometry x="473" y="563.5" width="52" height="18" as="geometry" />
        </mxCell>
        <mxCell id="CTemaUN2CCBBiWH_kIwZ-23" style="rounded=1;orthogonalLoop=1;jettySize=auto;html=1;exitX=0.28;exitY=0.5;exitDx=0;exitDy=0;exitPerimeter=0;endArrow=none;endFill=0;startArrow=none;startFill=0;entryX=1;entryY=0.5;entryDx=0;entryDy=0;entryPerimeter=0;" parent="1" source="CTemaUN2CCBBiWH_kIwZ-20" target="CTemaUN2CCBBiWH_kIwZ-18" edge="1">
          <mxGeometry relative="1" as="geometry">
            <mxPoint x="305.75" y="931.5" as="sourcePoint" />
            <mxPoint x="230.25" y="838.5" as="targetPoint" />
          </mxGeometry>
        </mxCell>
        <mxCell id="CTemaUN2CCBBiWH_kIwZ-27" style="edgeStyle=none;rounded=1;orthogonalLoop=1;jettySize=auto;html=1;exitX=0.87;exitY=0.09;exitDx=0;exitDy=0;exitPerimeter=0;entryX=0.36;entryY=1;entryDx=0;entryDy=0;entryPerimeter=0;startArrow=none;startFill=0;endArrow=none;endFill=0;" parent="1" source="EAKdSy7ptGbpC2-vD8Ey-8" target="7UlHeGkB-n3cVjGxctKM-23" edge="1">
          <mxGeometry relative="1" as="geometry">
            <mxPoint x="176" y="862" as="sourcePoint" />
            <mxPoint x="176" y="807" as="targetPoint" />
          </mxGeometry>
        </mxCell>
        <mxCell id="CTemaUN2CCBBiWH_kIwZ-28" style="edgeStyle=none;orthogonalLoop=1;jettySize=auto;html=1;startArrow=none;startFill=0;endArrow=none;endFill=0;rounded=1;strokeColor=#CC6600;strokeWidth=4;entryX=0.5;entryY=1;entryDx=0;entryDy=0;entryPerimeter=0;exitX=1;exitY=0.5;exitDx=0;exitDy=0;exitPerimeter=0;" parent="1" source="7UlHeGkB-n3cVjGxctKM-23" target="CTemaUN2CCBBiWH_kIwZ-15" edge="1">
          <mxGeometry relative="1" as="geometry">
            <mxPoint x="145.5" y="732" as="sourcePoint" />
            <mxPoint x="383.5" y="643" as="targetPoint" />
          </mxGeometry>
        </mxCell>
        <mxCell id="CTemaUN2CCBBiWH_kIwZ-32" value="VCPE" style="shape=mxgraph.cisco.routers.content_service_router;html=1;pointerEvents=1;dashed=0;fillColor=#036897;strokeColor=#ffffff;strokeWidth=2;verticalLabelPosition=bottom;verticalAlign=top;align=center;outlineConnect=0;" parent="1" vertex="1">
          <mxGeometry x="282.25" y="822" width="70" height="38" as="geometry" />
        </mxCell>
        <mxCell id="CTemaUN2CCBBiWH_kIwZ-34" value="VPC" style="shape=mxgraph.cisco.servers.www_server;sketch=0;html=1;pointerEvents=1;dashed=0;fillColor=#036897;strokeColor=#ffffff;strokeWidth=2;verticalLabelPosition=bottom;verticalAlign=top;align=center;outlineConnect=0;" parent="1" vertex="1">
          <mxGeometry x="289.38" y="896" width="53.75" height="45" as="geometry" />
        </mxCell>
        <mxCell id="CTemaUN2CCBBiWH_kIwZ-37" style="rounded=1;orthogonalLoop=1;jettySize=auto;html=1;endArrow=none;endFill=0;startArrow=none;startFill=0;exitX=0.5;exitY=1;exitDx=0;exitDy=0;exitPerimeter=0;entryX=0.5;entryY=0;entryDx=0;entryDy=0;entryPerimeter=0;" parent="1" source="CTemaUN2CCBBiWH_kIwZ-32" target="CTemaUN2CCBBiWH_kIwZ-34" edge="1">
          <mxGeometry relative="1" as="geometry">
            <mxPoint x="326.25" y="831" as="sourcePoint" />
            <mxPoint x="326.25" y="780" as="targetPoint" />
          </mxGeometry>
        </mxCell>
        <mxCell id="CTemaUN2CCBBiWH_kIwZ-38" value="&lt;span style=&quot;font-size: 14px&quot;&gt;分支三&lt;/span&gt;" style="text;html=1;resizable=0;autosize=1;align=center;verticalAlign=middle;points=[];fillColor=#fa6800;strokeColor=#C73500;rounded=0;dashed=1;fontColor=#ffffff;fontStyle=1" parent="1" vertex="1">
          <mxGeometry x="289.38" y="978" width="52" height="18" as="geometry" />
        </mxCell>
        <mxCell id="CTemaUN2CCBBiWH_kIwZ-41" value="" style="rounded=1;whiteSpace=wrap;html=1;dashed=1;" parent="1" vertex="1">
          <mxGeometry x="394" y="701" width="108.5" height="306" as="geometry" />
        </mxCell>
        <mxCell id="CTemaUN2CCBBiWH_kIwZ-42" value="华为云" style="pointerEvents=1;shadow=0;dashed=0;html=1;strokeColor=none;fillColor=#505050;labelPosition=center;verticalLabelPosition=bottom;outlineConnect=0;verticalAlign=top;align=center;shape=mxgraph.office.clouds.cloud;" parent="1" vertex="1">
          <mxGeometry x="401.25" y="715" width="94" height="55" as="geometry" />
        </mxCell>
        <mxCell id="CTemaUN2CCBBiWH_kIwZ-43" style="rounded=1;orthogonalLoop=1;jettySize=auto;html=1;endArrow=none;endFill=0;startArrow=none;startFill=0;exitX=0.5;exitY=0;exitDx=0;exitDy=0;exitPerimeter=0;" parent="1" target="CTemaUN2CCBBiWH_kIwZ-42" edge="1">
          <mxGeometry relative="1" as="geometry">
            <mxPoint x="448.25" y="821" as="sourcePoint" />
            <mxPoint x="458.25" y="891" as="targetPoint" />
          </mxGeometry>
        </mxCell>
        <mxCell id="CTemaUN2CCBBiWH_kIwZ-44" value="VCPE" style="shape=mxgraph.cisco.routers.content_service_router;html=1;pointerEvents=1;dashed=0;fillColor=#036897;strokeColor=#ffffff;strokeWidth=2;verticalLabelPosition=bottom;verticalAlign=top;align=center;outlineConnect=0;" parent="1" vertex="1">
          <mxGeometry x="414.25" y="822" width="70" height="38" as="geometry" />
        </mxCell>
        <mxCell id="CTemaUN2CCBBiWH_kIwZ-45" value="VPC" style="shape=mxgraph.cisco.servers.www_server;sketch=0;html=1;pointerEvents=1;dashed=0;fillColor=#036897;strokeColor=#ffffff;strokeWidth=2;verticalLabelPosition=bottom;verticalAlign=top;align=center;outlineConnect=0;" parent="1" vertex="1">
          <mxGeometry x="421.38" y="896" width="53.75" height="45" as="geometry" />
        </mxCell>
        <mxCell id="CTemaUN2CCBBiWH_kIwZ-46" style="rounded=1;orthogonalLoop=1;jettySize=auto;html=1;endArrow=none;endFill=0;startArrow=none;startFill=0;exitX=0.5;exitY=1;exitDx=0;exitDy=0;exitPerimeter=0;entryX=0.5;entryY=0;entryDx=0;entryDy=0;entryPerimeter=0;" parent="1" source="CTemaUN2CCBBiWH_kIwZ-44" target="CTemaUN2CCBBiWH_kIwZ-45" edge="1">
          <mxGeometry relative="1" as="geometry">
            <mxPoint x="458.25" y="831" as="sourcePoint" />
            <mxPoint x="458.25" y="780" as="targetPoint" />
          </mxGeometry>
        </mxCell>
        <mxCell id="CTemaUN2CCBBiWH_kIwZ-47" value="&lt;span style=&quot;font-size: 14px&quot;&gt;分支四&lt;/span&gt;" style="text;html=1;resizable=0;autosize=1;align=center;verticalAlign=middle;points=[];fillColor=#fa6800;strokeColor=#C73500;rounded=0;dashed=1;fontColor=#ffffff;fontStyle=1" parent="1" vertex="1">
          <mxGeometry x="421.38" y="978" width="52" height="18" as="geometry" />
        </mxCell>
        <mxCell id="CTemaUN2CCBBiWH_kIwZ-48" value="" style="rounded=1;whiteSpace=wrap;html=1;dashed=1;" parent="1" vertex="1">
          <mxGeometry x="526" y="701" width="108.5" height="306" as="geometry" />
        </mxCell>
        <mxCell id="CTemaUN2CCBBiWH_kIwZ-49" value="腾讯云" style="pointerEvents=1;shadow=0;dashed=0;html=1;strokeColor=none;fillColor=#505050;labelPosition=center;verticalLabelPosition=bottom;outlineConnect=0;verticalAlign=top;align=center;shape=mxgraph.office.clouds.cloud;" parent="1" vertex="1">
          <mxGeometry x="533.25" y="715" width="94" height="55" as="geometry" />
        </mxCell>
        <mxCell id="CTemaUN2CCBBiWH_kIwZ-50" style="rounded=1;orthogonalLoop=1;jettySize=auto;html=1;endArrow=none;endFill=0;startArrow=none;startFill=0;exitX=0.5;exitY=0;exitDx=0;exitDy=0;exitPerimeter=0;" parent="1" target="CTemaUN2CCBBiWH_kIwZ-49" edge="1">
          <mxGeometry relative="1" as="geometry">
            <mxPoint x="580.25" y="821" as="sourcePoint" />
            <mxPoint x="590.25" y="891" as="targetPoint" />
          </mxGeometry>
        </mxCell>
        <mxCell id="CTemaUN2CCBBiWH_kIwZ-51" value="VCPE" style="shape=mxgraph.cisco.routers.content_service_router;html=1;pointerEvents=1;dashed=0;fillColor=#036897;strokeColor=#ffffff;strokeWidth=2;verticalLabelPosition=bottom;verticalAlign=top;align=center;outlineConnect=0;" parent="1" vertex="1">
          <mxGeometry x="546.25" y="822" width="70" height="38" as="geometry" />
        </mxCell>
        <mxCell id="CTemaUN2CCBBiWH_kIwZ-52" value="VPC" style="shape=mxgraph.cisco.servers.www_server;sketch=0;html=1;pointerEvents=1;dashed=0;fillColor=#036897;strokeColor=#ffffff;strokeWidth=2;verticalLabelPosition=bottom;verticalAlign=top;align=center;outlineConnect=0;" parent="1" vertex="1">
          <mxGeometry x="553.38" y="896" width="53.75" height="45" as="geometry" />
        </mxCell>
        <mxCell id="CTemaUN2CCBBiWH_kIwZ-53" style="rounded=1;orthogonalLoop=1;jettySize=auto;html=1;endArrow=none;endFill=0;startArrow=none;startFill=0;exitX=0.5;exitY=1;exitDx=0;exitDy=0;exitPerimeter=0;entryX=0.5;entryY=0;entryDx=0;entryDy=0;entryPerimeter=0;" parent="1" source="CTemaUN2CCBBiWH_kIwZ-51" target="CTemaUN2CCBBiWH_kIwZ-52" edge="1">
          <mxGeometry relative="1" as="geometry">
            <mxPoint x="590.25" y="831" as="sourcePoint" />
            <mxPoint x="590.25" y="780" as="targetPoint" />
          </mxGeometry>
        </mxCell>
        <mxCell id="CTemaUN2CCBBiWH_kIwZ-54" value="&lt;span style=&quot;font-size: 14px&quot;&gt;分支五&lt;/span&gt;" style="text;html=1;resizable=0;autosize=1;align=center;verticalAlign=middle;points=[];fillColor=#fa6800;strokeColor=#C73500;rounded=0;dashed=1;fontColor=#ffffff;fontStyle=1" parent="1" vertex="1">
          <mxGeometry x="553.38" y="978" width="52" height="18" as="geometry" />
        </mxCell>
        <mxCell id="CTemaUN2CCBBiWH_kIwZ-55" style="edgeStyle=none;orthogonalLoop=1;jettySize=auto;html=1;startArrow=none;startFill=0;endArrow=none;endFill=0;rounded=1;strokeColor=#CC6600;strokeWidth=4;exitX=0.5;exitY=1;exitDx=0;exitDy=0;exitPerimeter=0;" parent="1" source="CTemaUN2CCBBiWH_kIwZ-15" target="7UlHeGkB-n3cVjGxctKM-26" edge="1">
          <mxGeometry relative="1" as="geometry">
            <mxPoint x="383.5" y="643" as="sourcePoint" />
            <mxPoint x="339" y="748" as="targetPoint" />
          </mxGeometry>
        </mxCell>
        <mxCell id="CTemaUN2CCBBiWH_kIwZ-56" style="edgeStyle=none;orthogonalLoop=1;jettySize=auto;html=1;startArrow=none;startFill=0;endArrow=none;endFill=0;rounded=1;strokeColor=#CC6600;strokeWidth=4;entryX=0.5;entryY=1;entryDx=0;entryDy=0;entryPerimeter=0;" parent="1" source="CTemaUN2CCBBiWH_kIwZ-42" target="CTemaUN2CCBBiWH_kIwZ-15" edge="1">
          <mxGeometry relative="1" as="geometry">
            <mxPoint x="383.5" y="643" as="sourcePoint" />
            <mxPoint x="460.81963470319624" y="725" as="targetPoint" />
          </mxGeometry>
        </mxCell>
        <mxCell id="CTemaUN2CCBBiWH_kIwZ-57" style="edgeStyle=none;orthogonalLoop=1;jettySize=auto;html=1;startArrow=none;startFill=0;endArrow=none;endFill=0;rounded=1;strokeColor=#CC6600;strokeWidth=4;exitX=0.5;exitY=1;exitDx=0;exitDy=0;exitPerimeter=0;" parent="1" source="CTemaUN2CCBBiWH_kIwZ-15" target="CTemaUN2CCBBiWH_kIwZ-49" edge="1">
          <mxGeometry relative="1" as="geometry">
            <mxPoint x="393.5" y="653" as="sourcePoint" />
            <mxPoint x="470.81963470319624" y="735" as="targetPoint" />
          </mxGeometry>
        </mxCell>
        <mxCell id="Dt1MJRYMlLzSGPCSOFRn-7" value="Wan：10.1.1.5/29" style="text;html=1;resizable=0;autosize=1;align=center;verticalAlign=middle;points=[];fillColor=none;strokeColor=none;rounded=0;hachureGap=4;pointerEvents=0;" parent="1" vertex="1">
          <mxGeometry x="123.75" y="331" width="106" height="18" as="geometry" />
        </mxCell>
        <mxCell id="Dt1MJRYMlLzSGPCSOFRn-8" value="Wan：10.1.1.6/29" style="text;html=1;resizable=0;autosize=1;align=center;verticalAlign=middle;points=[];fillColor=none;strokeColor=none;rounded=0;hachureGap=4;pointerEvents=0;" parent="1" vertex="1">
          <mxGeometry x="449.13" y="326" width="106" height="18" as="geometry" />
        </mxCell>
        <mxCell id="Dt1MJRYMlLzSGPCSOFRn-9" value="Lan：10.1.1.13/29" style="text;html=1;resizable=0;autosize=1;align=center;verticalAlign=middle;points=[];fillColor=none;strokeColor=none;rounded=0;hachureGap=4;pointerEvents=0;" parent="1" vertex="1">
          <mxGeometry x="117.75" y="233" width="108" height="18" as="geometry" />
        </mxCell>
        <mxCell id="Dt1MJRYMlLzSGPCSOFRn-10" value="Lan：10.1.1.14/29" style="text;html=1;resizable=0;autosize=1;align=center;verticalAlign=middle;points=[];fillColor=none;strokeColor=none;rounded=0;hachureGap=4;pointerEvents=0;" parent="1" vertex="1">
          <mxGeometry x="450.25" y="233" width="108" height="18" as="geometry" />
        </mxCell>
        <mxCell id="Dt1MJRYMlLzSGPCSOFRn-11" value="Wan：10.1.1.1/29" style="text;html=1;resizable=0;autosize=1;align=center;verticalAlign=middle;points=[];fillColor=none;strokeColor=none;rounded=0;hachureGap=4;pointerEvents=0;" parent="1" vertex="1">
          <mxGeometry x="244.25" y="313" width="106" height="18" as="geometry" />
        </mxCell>
        <mxCell id="Dt1MJRYMlLzSGPCSOFRn-13" value="Lan：10.1.1.9/29" style="text;html=1;resizable=0;autosize=1;align=center;verticalAlign=middle;points=[];fillColor=none;strokeColor=none;rounded=0;hachureGap=4;pointerEvents=0;" parent="1" vertex="1">
          <mxGeometry x="243.25" y="268" width="102" height="18" as="geometry" />
        </mxCell>
        <mxCell id="Dt1MJRYMlLzSGPCSOFRn-14" value="172.16.100.1/24" style="text;html=1;resizable=0;autosize=1;align=center;verticalAlign=middle;points=[];fillColor=none;strokeColor=none;rounded=0;hachureGap=4;pointerEvents=0;" parent="1" vertex="1">
          <mxGeometry x="319.75" y="227" width="96" height="18" as="geometry" />
        </mxCell>
        <mxCell id="Dt1MJRYMlLzSGPCSOFRn-15" value="172.16.100.2/24" style="text;html=1;resizable=0;autosize=1;align=center;verticalAlign=middle;points=[];fillColor=none;strokeColor=none;rounded=0;hachureGap=4;pointerEvents=0;" parent="1" vertex="1">
          <mxGeometry x="319.75" y="195" width="96" height="18" as="geometry" />
        </mxCell>
        <mxCell id="Dt1MJRYMlLzSGPCSOFRn-16" value="10.1.131.216/24" style="text;html=1;resizable=0;autosize=1;align=center;verticalAlign=middle;points=[];fillColor=none;strokeColor=none;rounded=0;hachureGap=4;pointerEvents=0;" parent="1" vertex="1">
          <mxGeometry x="323.75" y="340" width="96" height="18" as="geometry" />
        </mxCell>
        <mxCell id="Dt1MJRYMlLzSGPCSOFRn-18" value="联通线路：202.96.11.201" style="text;html=1;resizable=0;autosize=1;align=center;verticalAlign=middle;points=[];fillColor=none;strokeColor=none;rounded=0;hachureGap=4;pointerEvents=0;" parent="1" vertex="1">
          <mxGeometry x="313.25" y="365" width="146" height="18" as="geometry" />
        </mxCell>
        <mxCell id="Dt1MJRYMlLzSGPCSOFRn-19" value="路由器" style="shape=mxgraph.cisco.routers.atm_router;sketch=0;html=1;pointerEvents=1;dashed=0;fillColor=#036897;strokeColor=#ffffff;strokeWidth=2;verticalLabelPosition=bottom;verticalAlign=top;align=center;outlineConnect=0;" parent="1" vertex="1">
          <mxGeometry x="49" y="723" width="60" height="39" as="geometry" />
        </mxCell>
        <mxCell id="Dt1MJRYMlLzSGPCSOFRn-20" value="PC" style="shape=mxgraph.cisco.computers_and_peripherals.laptop;html=1;pointerEvents=1;dashed=0;fillColor=#036897;strokeColor=#ffffff;strokeWidth=2;verticalLabelPosition=bottom;verticalAlign=top;align=center;outlineConnect=0;" parent="1" vertex="1">
          <mxGeometry x="136.75" y="115" width="80" height="50" as="geometry" />
        </mxCell>
        <mxCell id="Dt1MJRYMlLzSGPCSOFRn-21" value="BGP网段：192.168.60.2/24" style="text;html=1;resizable=0;autosize=1;align=center;verticalAlign=middle;points=[];fillColor=none;strokeColor=none;rounded=0;hachureGap=4;pointerEvents=0;" parent="1" vertex="1">
          <mxGeometry x="82.25" y="187" width="158" height="18" as="geometry" />
        </mxCell>
        <mxCell id="Dt1MJRYMlLzSGPCSOFRn-22" style="rounded=1;orthogonalLoop=1;jettySize=auto;html=1;endArrow=none;endFill=0;startArrow=none;startFill=0;entryX=0.5;entryY=0;entryDx=0;entryDy=0;entryPerimeter=0;" parent="1" source="Dt1MJRYMlLzSGPCSOFRn-20" target="CTemaUN2CCBBiWH_kIwZ-6" edge="1">
          <mxGeometry relative="1" as="geometry">
            <mxPoint x="281.25" y="153" as="sourcePoint" />
            <mxPoint x="281.25" y="237" as="targetPoint" />
          </mxGeometry>
        </mxCell>
        <mxCell id="Dt1MJRYMlLzSGPCSOFRn-23" value="电信线路：219.142.98.217" style="text;html=1;resizable=0;autosize=1;align=center;verticalAlign=middle;points=[];fillColor=none;strokeColor=none;rounded=0;hachureGap=4;pointerEvents=0;" parent="1" vertex="1">
          <mxGeometry x="19" y="635" width="153" height="18" as="geometry" />
        </mxCell>
        <mxCell id="Dt1MJRYMlLzSGPCSOFRn-24" value="10.1.131.217/24" style="text;html=1;resizable=0;autosize=1;align=center;verticalAlign=middle;points=[];fillColor=none;strokeColor=none;rounded=0;hachureGap=4;pointerEvents=0;" parent="1" vertex="1">
          <mxGeometry x="37" y="657.5" width="96" height="18" as="geometry" />
        </mxCell>
        <mxCell id="Dt1MJRYMlLzSGPCSOFRn-26" value="192.168.10.2/24" style="text;html=1;resizable=0;autosize=1;align=center;verticalAlign=middle;points=[];fillColor=none;strokeColor=none;rounded=0;hachureGap=4;pointerEvents=0;" parent="1" vertex="1">
          <mxGeometry x="102" y="962" width="96" height="18" as="geometry" />
        </mxCell>
        <mxCell id="Dt1MJRYMlLzSGPCSOFRn-27" value="192.168.10.1/24" style="text;html=1;resizable=0;autosize=1;align=center;verticalAlign=middle;points=[];fillColor=none;strokeColor=none;rounded=0;hachureGap=4;pointerEvents=0;" parent="1" vertex="1">
          <mxGeometry x="99" y="884" width="96" height="18" as="geometry" />
        </mxCell>
        <mxCell id="Dt1MJRYMlLzSGPCSOFRn-28" value="10.1.3.4/24" style="text;html=1;resizable=0;autosize=1;align=center;verticalAlign=middle;points=[];fillColor=none;strokeColor=none;rounded=0;hachureGap=4;pointerEvents=0;" parent="1" vertex="1">
          <mxGeometry x="37" y="798" width="70" height="18" as="geometry" />
        </mxCell>
        <mxCell id="Dt1MJRYMlLzSGPCSOFRn-29" value="10.1.3.1/24" style="text;html=1;resizable=0;autosize=1;align=center;verticalAlign=middle;points=[];fillColor=none;strokeColor=none;rounded=0;hachureGap=4;pointerEvents=0;" parent="1" vertex="1">
          <mxGeometry x="39" y="780" width="70" height="18" as="geometry" />
        </mxCell>
        <mxCell id="Dt1MJRYMlLzSGPCSOFRn-32" value="PPPoE服务器" style="shape=mxgraph.cisco.modems_and_phones.cable_modem;html=1;pointerEvents=1;dashed=0;fillColor=#036897;strokeColor=#ffffff;strokeWidth=2;verticalLabelPosition=bottom;verticalAlign=top;align=center;outlineConnect=0;" parent="1" vertex="1">
          <mxGeometry x="444" y="445.5" width="74" height="35" as="geometry" />
        </mxCell>
        <mxCell id="Dt1MJRYMlLzSGPCSOFRn-34" style="rounded=1;orthogonalLoop=1;jettySize=auto;html=1;endArrow=none;endFill=0;startArrow=none;startFill=0;exitX=0.5;exitY=0;exitDx=0;exitDy=0;exitPerimeter=0;entryX=0.5;entryY=1;entryDx=0;entryDy=0;entryPerimeter=0;" parent="1" source="Dt1MJRYMlLzSGPCSOFRn-32" target="CTemaUN2CCBBiWH_kIwZ-6" edge="1">
          <mxGeometry relative="1" as="geometry">
            <mxPoint x="672" y="387" as="sourcePoint" />
            <mxPoint x="420" y="558.5" as="targetPoint" />
          </mxGeometry>
        </mxCell>
        <mxCell id="Dt1MJRYMlLzSGPCSOFRn-37" value="10.1.4.2/24" style="text;html=1;resizable=0;autosize=1;align=center;verticalAlign=middle;points=[];fillColor=none;strokeColor=none;rounded=0;hachureGap=4;pointerEvents=0;" parent="1" vertex="1">
          <mxGeometry x="444" y="424.5" width="70" height="18" as="geometry" />
        </mxCell>
        <mxCell id="Dt1MJRYMlLzSGPCSOFRn-39" value="10.1.2.9/32" style="text;html=1;resizable=0;autosize=1;align=center;verticalAlign=middle;points=[];fillColor=none;strokeColor=none;rounded=0;hachureGap=4;pointerEvents=0;" parent="1" vertex="1">
          <mxGeometry x="532.25" y="500.5" width="70" height="18" as="geometry" />
        </mxCell>
        <mxCell id="Dt1MJRYMlLzSGPCSOFRn-40" value="10.1.2.8/32" style="text;html=1;resizable=0;autosize=1;align=center;verticalAlign=middle;points=[];fillColor=none;strokeColor=none;rounded=0;hachureGap=4;pointerEvents=0;" parent="1" vertex="1">
          <mxGeometry x="444" y="503.5" width="70" height="18" as="geometry" />
        </mxCell>
        <mxCell id="Dt1MJRYMlLzSGPCSOFRn-41" value="192.168.20.2/24" style="text;html=1;resizable=0;autosize=1;align=center;verticalAlign=middle;points=[];fillColor=none;strokeColor=none;rounded=0;hachureGap=4;pointerEvents=0;" parent="1" vertex="1">
          <mxGeometry x="673.25" y="411.5" width="96" height="18" as="geometry" />
        </mxCell>
        <mxCell id="Dt1MJRYMlLzSGPCSOFRn-42" value="192.168.20.1/24" style="text;html=1;resizable=0;autosize=1;align=center;verticalAlign=middle;points=[];fillColor=none;strokeColor=none;rounded=0;hachureGap=4;pointerEvents=0;" parent="1" vertex="1">
          <mxGeometry x="557.13" y="413.5" width="96" height="18" as="geometry" />
        </mxCell>
        <mxCell id="Dt1MJRYMlLzSGPCSOFRn-43" value="路由器" style="shape=mxgraph.cisco.routers.atm_router;sketch=0;html=1;pointerEvents=1;dashed=0;fillColor=#036897;strokeColor=#ffffff;strokeWidth=2;verticalLabelPosition=bottom;verticalAlign=top;align=center;outlineConnect=0;" parent="1" vertex="1">
          <mxGeometry x="581" y="548.5" width="60" height="39" as="geometry" />
        </mxCell>
        <mxCell id="Dt1MJRYMlLzSGPCSOFRn-44" style="rounded=1;orthogonalLoop=1;jettySize=auto;html=1;endArrow=none;endFill=0;startArrow=none;startFill=0;entryX=0.5;entryY=1;entryDx=0;entryDy=0;entryPerimeter=0;exitX=0.5;exitY=0;exitDx=0;exitDy=0;exitPerimeter=0;" parent="1" source="Dt1MJRYMlLzSGPCSOFRn-43" target="CTemaUN2CCBBiWH_kIwZ-18" edge="1">
          <mxGeometry relative="1" as="geometry">
            <mxPoint x="545.75" y="566" as="sourcePoint" />
            <mxPoint x="545.25" y="409.5" as="targetPoint" />
          </mxGeometry>
        </mxCell>
        <mxCell id="Dt1MJRYMlLzSGPCSOFRn-45" value="PC" style="shape=mxgraph.cisco.computers_and_peripherals.laptop;html=1;pointerEvents=1;dashed=0;fillColor=#036897;strokeColor=#ffffff;strokeWidth=2;verticalLabelPosition=bottom;verticalAlign=top;align=center;outlineConnect=0;" parent="1" vertex="1">
          <mxGeometry x="673.25" y="543.5" width="80" height="50" as="geometry" />
        </mxCell>
        <mxCell id="Dt1MJRYMlLzSGPCSOFRn-46" value="192.168.20.3/24" style="text;html=1;resizable=0;autosize=1;align=center;verticalAlign=middle;points=[];fillColor=none;strokeColor=none;rounded=0;hachureGap=4;pointerEvents=0;" parent="1" vertex="1">
          <mxGeometry x="560.25" y="526.5" width="96" height="18" as="geometry" />
        </mxCell>
        <mxCell id="Dt1MJRYMlLzSGPCSOFRn-47" value="OSPF网段：192.168.21.2/24" style="text;html=1;resizable=0;autosize=1;align=center;verticalAlign=middle;points=[];fillColor=none;strokeColor=none;rounded=0;hachureGap=4;pointerEvents=0;" parent="1" vertex="1">
          <mxGeometry x="646" y="609.5" width="165" height="18" as="geometry" />
        </mxCell>
        <mxCell id="Dt1MJRYMlLzSGPCSOFRn-48" value="192.168.21.1/24" style="text;html=1;resizable=0;autosize=1;align=center;verticalAlign=middle;points=[];fillColor=none;strokeColor=none;rounded=0;hachureGap=4;pointerEvents=0;" parent="1" vertex="1">
          <mxGeometry x="536.25" y="609.5" width="96" height="18" as="geometry" />
        </mxCell>
        <mxCell id="Dt1MJRYMlLzSGPCSOFRn-49" style="rounded=1;orthogonalLoop=1;jettySize=auto;html=1;exitX=0.28;exitY=0.5;exitDx=0;exitDy=0;exitPerimeter=0;endArrow=none;endFill=0;startArrow=none;startFill=0;entryX=1;entryY=0.5;entryDx=0;entryDy=0;entryPerimeter=0;" parent="1" source="Dt1MJRYMlLzSGPCSOFRn-45" target="Dt1MJRYMlLzSGPCSOFRn-43" edge="1">
          <mxGeometry relative="1" as="geometry">
            <mxPoint x="710.6500000000001" y="471.5" as="sourcePoint" />
            <mxPoint x="654.1300000000001" y="471.5" as="targetPoint" />
          </mxGeometry>
        </mxCell>
      </root>
    </mxGraphModel>
  </diagram>
</mxfile>
